<svg xmlns="http://www.w3.org/2000/svg" viewBox="0 0 200 200" fill="none">
  <defs>
    <linearGradient id="bg" x1="0" y1="0" x2="1" y2="1">
      <stop offset="0%" stop-color="#d4af37"/>
      <stop offset="100%" stop-color="#b8942e"/>
    </linearGradient>
  </defs>

  <!-- Rounded square background - gold -->
  <rect x="10" y="10" width="180" height="180" rx="36" fill="url(#bg)"/>

  <!-- Indiana State Outline (simplified, centered) -->
  <g transform="translate(48, 18) scale(0.82)">
    <path d="
      M 58 8
      L 148 5
      L 150 8
      L 152 5
      L 155 8
      L 160 6
      L 162 9
      L 165 7
      L 168 10
      L 168 14
      L 160 16
      L 155 20
      L 152 28
      L 150 40
      L 150 60
      L 152 80
      L 155 100
      L 158 115
      L 162 128
      L 165 138
      L 160 148
      L 152 158
      L 140 168
      L 128 178
      L 115 185
      L 100 190
      L 88 192
      L 75 190
      L 65 185
      L 58 178
      L 50 168
      L 42 155
      L 38 142
      L 36 128
      L 35 110
      L 36 90
      L 38 70
      L 42 50
      L 48 32
      L 52 20
      L 55 12
      Z
    " fill="rgba(26,46,74,0.15)" stroke="#1a2e4a" stroke-width="3"/>

    <!-- Scales of Justice - dark navy for contrast on gold -->
    <g transform="translate(100, 85)">
      <!-- Center pillar -->
      <line x1="0" y1="-45" x2="0" y2="35" stroke="#1a2e4a" stroke-width="4" stroke-linecap="round"/>
      <!-- Base -->
      <line x1="-18" y1="35" x2="18" y2="35" stroke="#1a2e4a" stroke-width="4" stroke-linecap="round"/>
      <!-- Top ornament -->
      <circle cx="0" cy="-48" r="6" fill="#1a2e4a"/>
      <!-- Beam -->
      <line x1="-42" y1="-28" x2="42" y2="-28" stroke="#1a2e4a" stroke-width="4" stroke-linecap="round"/>
      <!-- Left chain -->
      <line x1="-42" y1="-28" x2="-42" y2="-4" stroke="#1a2e4a" stroke-width="3" stroke-linecap="round"/>
      <!-- Right chain -->
      <line x1="42" y1="-28" x2="42" y2="-4" stroke="#1a2e4a" stroke-width="3" stroke-linecap="round"/>
      <!-- Left pan -->
      <path d="M -55 -4 Q -42 16 -29 -4" stroke="#1a2e4a" stroke-width="3.5" fill="none" stroke-linecap="round"/>
      <!-- Right pan -->
      <path d="M 29 -4 Q 42 16 55 -4" stroke="#1a2e4a" stroke-width="3.5" fill="none" stroke-linecap="round"/>
    </g>
  </g>
</svg>
